<svg width="24" height="24" viewBox="0 0 24 24" fill="none" xmlns="http://www.w3.org/2000/svg">
<path d="M12 0C18.6268 0 24 5.37321 24 12C24 18.6268 18.6268 24 12 24C5.37321 24 0 18.6268 0 12C0 5.37321 5.37321 0 12 0ZM16.3604 6.06934C16.2481 6.06943 16.1408 6.11221 16.0605 6.19238L12.0049 10.1943L7.9502 6.19238C7.86995 6.11221 7.76268 6.06943 7.65039 6.06934C7.53791 6.06934 7.42996 6.11205 7.34961 6.19238L6.19238 7.35547C6.02665 7.52153 6.02653 7.79495 6.19238 7.96094L10.2588 11.9785L6.20312 16.0498C6.12295 16.1247 6.08018 16.2373 6.08008 16.3496C6.08008 16.4621 6.12279 16.57 6.20312 16.6504L7.36035 17.8125C7.44071 17.8929 7.55399 17.9355 7.66113 17.9355C7.76815 17.9354 7.88069 17.8981 7.96094 17.8125L12 13.7568L16.0449 17.8076C16.1253 17.8877 16.2378 17.9307 16.3447 17.9307C16.4517 17.9306 16.5589 17.8931 16.6445 17.8076L17.8018 16.6445C17.8821 16.5695 17.9248 16.4572 17.9248 16.3447C17.9248 16.2323 17.882 16.1253 17.8018 16.0449L13.752 11.9785L17.8174 7.96094C17.9835 7.79487 17.9835 7.52154 17.8174 7.35547L16.6611 6.19238C16.5808 6.11204 16.4728 6.06934 16.3604 6.06934Z" fill="#F52D56"/>
</svg>
