<svg xmlns="http://www.w3.org/2000/svg" xmlns:xlink="http://www.w3.org/1999/xlink" version="1.1" width="256" height="256" viewBox="0 0 256 256" xml:space="preserve">
<g style="stroke: none; stroke-width: 0; stroke-dasharray: none; stroke-linecap: butt; stroke-linejoin: miter; stroke-miterlimit: 10; fill: none; fill-rule: nonzero; opacity: 1;" transform="translate(1.4065934065934016 1.4065934065934016) scale(2.81 2.81)">
	<circle cx="45" cy="45" r="15" style="stroke: none; stroke-width: 1; stroke-dasharray: none; stroke-linecap: butt; stroke-linejoin: miter; stroke-miterlimit: 10; fill: rgb(0,183,255); fill-rule: nonzero; opacity: 1;" transform="  matrix(1 0 0 1 0 0) "/>
	<path d="M 90 41 H 79.01 C 77.175 25.306 64.694 12.825 49 10.99 V 0 h -8 v 10.99 C 25.306 12.825 12.825 25.306 10.99 41 H 0 v 8 h 10.99 C 12.825 64.694 25.306 77.175 41 79.01 V 90 h 8 V 79.01 C 64.694 77.175 77.175 64.694 79.01 49 H 90 V 41 z M 45 71.251 c -14.475 0 -26.251 -11.776 -26.251 -26.251 S 30.525 18.749 45 18.749 S 71.251 30.525 71.251 45 S 59.475 71.251 45 71.251 z" style="stroke: none; stroke-width: 1; stroke-dasharray: none; stroke-linecap: butt; stroke-linejoin: miter; stroke-miterlimit: 10; fill: rgb(0,183,255); fill-rule: nonzero; opacity: 1;" transform=" matrix(1 0 0 1 0 0) " stroke-linecap="round"/>
</g>
</svg>