<svg width="100" height="183" viewBox="0 0 100 183" fill="none" xmlns="http://www.w3.org/2000/svg">
<path d="M50.5 183L29.2824 65.25L71.7176 65.25L50.5 183Z" fill="#E6E6E6"/>
<path d="M29.8809 65.75L71.1191 65.75L50.5 180.181L29.8809 65.75Z" stroke="black" stroke-opacity="0.71"/>
<circle cx="50" cy="50" r="50" fill="#FF1C1C"/>
<circle cx="50" cy="50" r="49.5" stroke="black" stroke-opacity="0.54"/>
<path d="M89.8136 53.1643C92.1035 53.0725 93.9032 51.1379 93.6219 48.8635C92.9882 43.7387 91.5633 38.7346 89.3908 34.0317C86.6372 28.0709 82.7365 22.7108 77.9114 18.2575C73.0863 13.8042 67.4313 10.3448 61.2693 8.07698C56.4076 6.28773 51.3055 5.26779 46.1465 5.0461C43.8568 4.94771 42.0724 6.89644 42.1642 9.18636V9.18636C42.2559 11.4763 44.1903 13.2367 46.478 13.3729C50.5461 13.6151 54.5643 14.4527 58.4028 15.8654C63.5421 17.7569 68.2584 20.642 72.2826 24.3561C76.3068 28.0703 79.5601 32.5407 81.8566 37.5121C83.5719 41.2252 84.7284 45.1636 85.2953 49.1992C85.6141 51.4687 87.5236 53.256 89.8136 53.1643V53.1643Z" fill="white"/>
</svg>
