<svg width="512" height="513" viewBox="0 0 512 513" fill="none" xmlns="http://www.w3.org/2000/svg">
<g clip-path="url(#clip0_283_311)">
<path d="M216.773 155.955C216.773 144.999 225.656 136.116 236.612 136.116C247.569 136.116 256.452 144.999 256.452 155.955V276.718L339.109 313.052C349.122 317.461 353.669 329.156 349.26 339.169C344.851 349.183 333.156 353.729 323.143 349.321L229.634 308.216C222.12 305.392 216.773 298.139 216.773 289.64V155.955ZM9.21711 153.551C8.6635 151.623 8.38343 149.626 8.38511 147.62L8.54611 74.2041C8.54611 62.3661 18.1431 52.7691 29.9811 52.7691C41.8181 52.7691 51.4151 62.3661 51.4151 74.2041L51.3531 102.064C64.0981 85.1111 78.9104 69.8161 95.4461 56.5341C112.219 43.0621 131.009 31.4891 151.628 22.2941C216.231 -6.51793 286.347 -6.43993 347.474 16.9781C408.647 40.4131 460.899 87.2131 489.707 151.806C518.519 216.404 518.44 286.523 495.02 347.651C472.473 406.507 428.294 457.098 367.45 486.505L366.691 486.875L366.196 487.115L365.931 487.24C358.109 490.995 350.103 494.355 341.944 497.306C294.985 514.292 244.587 517.07 197.007 505.863C150.643 494.945 106.897 470.792 71.5331 433.625C45.3301 406.087 26.2661 374.278 14.4311 340.543C2.28987 305.943 -2.2715 269.137 1.05611 232.619C2.01111 222.055 11.3561 214.266 21.9191 215.222C32.4821 216.177 40.2721 225.521 39.3161 236.085C36.5041 266.921 40.3311 298.254 50.7331 327.89C60.7801 356.529 77.0271 383.599 99.4001 407.113C129.387 438.626 166.46 459.103 205.744 468.354C246.226 477.89 289.03 475.551 328.841 461.153C343.002 456.03 356.854 449.34 370.144 441.084C383.349 432.869 395.678 423.324 406.938 412.598C407.384 412.176 407.842 411.779 408.316 411.407C430.787 389.335 447.961 362.812 459.019 333.945C478.959 281.904 479.063 222.294 454.611 167.47C430.156 112.64 385.762 72.8971 333.767 52.9791C281.726 33.0421 222.12 32.9381 167.292 57.3901C149.812 65.1861 133.84 75.0301 119.545 86.5121C105.382 97.8859 92.7108 111.002 81.8331 125.55L98.9291 124.584C110.766 123.936 120.892 133.005 121.539 144.842C122.187 156.679 113.119 166.805 101.281 167.453L31.5581 171.395C20.5401 171.998 11.0071 164.18 9.21711 153.551Z" fill="#054EE5"/>
</g>
<defs>
<clipPath id="clip0_283_311">
<rect width="512" height="512.584" fill="white"/>
</clipPath>
</defs>
</svg>
