<svg width="368" height="326" viewBox="0 0 368 326" fill="none" xmlns="http://www.w3.org/2000/svg">
<path fill-rule="evenodd" clip-rule="evenodd" d="M294.923 46.3929C296.104 46.3929 296.106 44.5649 294.923 44.5649C293.743 44.5649 293.741 46.3929 294.923 46.3929Z" fill="#F2F8FD"/>
<path fill-rule="evenodd" clip-rule="evenodd" d="M302.871 69.5475C304.051 69.5475 304.053 67.7195 302.871 67.7195C301.69 67.7195 301.688 69.5475 302.871 69.5475Z" fill="#F2F8FD"/>
<path fill-rule="evenodd" clip-rule="evenodd" d="M314.486 95.7486C315.667 95.7486 315.669 93.9207 314.486 93.9207C313.306 93.9207 313.304 95.7486 314.486 95.7486Z" fill="#F2F8FD"/>
<path fill-rule="evenodd" clip-rule="evenodd" d="M285.753 81.734C286.934 81.734 286.935 79.906 285.753 79.906C284.573 79.906 284.571 81.734 285.753 81.734Z" fill="#F2F8FD"/>
<path fill-rule="evenodd" clip-rule="evenodd" d="M324.268 47.6114C325.448 47.6114 325.45 45.7834 324.268 45.7834C323.087 45.7834 323.086 47.6114 324.268 47.6114Z" fill="#F2F8FD"/>
<path fill-rule="evenodd" clip-rule="evenodd" d="M322.434 32.9877C323.614 32.9877 323.616 31.1597 322.434 31.1597C321.253 31.1597 321.252 32.9877 322.434 32.9877Z" fill="#F2F8FD"/>
<path fill-rule="evenodd" clip-rule="evenodd" d="M224.886 44.828C226.067 44.828 226.068 43 224.886 43C223.706 43 223.704 44.828 224.886 44.828Z" fill="#F2F8FD"/>
<path fill-rule="evenodd" clip-rule="evenodd" d="M249.886 41.828C251.067 41.828 251.068 40 249.886 40C248.706 40 248.704 41.828 249.886 41.828Z" fill="#F2F8FD"/>
<path fill-rule="evenodd" clip-rule="evenodd" d="M265.886 54.828C267.067 54.828 267.068 53 265.886 53C264.706 53 264.704 54.828 265.886 54.828Z" fill="#F2F8FD"/>
<path fill-rule="evenodd" clip-rule="evenodd" d="M279.886 18.828C281.067 18.828 281.068 17 279.886 17C278.706 17 278.704 18.828 279.886 18.828Z" fill="#F2F8FD"/>
<path fill-rule="evenodd" clip-rule="evenodd" d="M307.762 154.244C308.942 154.244 308.944 152.416 307.762 152.416C306.581 152.416 306.579 154.244 307.762 154.244Z" fill="#F2F8FD"/>
<path fill-rule="evenodd" clip-rule="evenodd" d="M305.316 125.606C306.497 125.606 306.499 123.778 305.316 123.778C304.136 123.778 304.134 125.606 305.316 125.606Z" fill="#F2F8FD"/>
<path fill-rule="evenodd" clip-rule="evenodd" d="M272.304 146.323C273.484 146.323 273.486 144.495 272.304 144.495C271.123 144.495 271.121 146.323 272.304 146.323Z" fill="#F2F8FD"/>
<path fill-rule="evenodd" clip-rule="evenodd" d="M284.53 108.545C285.711 108.545 285.713 106.717 284.53 106.717C283.35 106.717 283.348 108.545 284.53 108.545Z" fill="#F2F8FD"/>
<path fill-rule="evenodd" clip-rule="evenodd" d="M322.434 131.09C323.614 131.09 323.616 129.262 322.434 129.262C321.253 129.262 321.252 131.09 322.434 131.09Z" fill="#F2F8FD"/>
<path fill-rule="evenodd" clip-rule="evenodd" d="M311.43 213.958C312.61 213.958 312.612 212.13 311.43 212.13C310.249 212.13 310.247 213.958 311.43 213.958Z" fill="#F2F8FD"/>
<path fill-rule="evenodd" clip-rule="evenodd" d="M264.356 225.536C265.537 225.536 265.539 223.708 264.356 223.708C263.176 223.708 263.174 225.536 264.356 225.536Z" fill="#F2F8FD"/>
<path fill-rule="evenodd" clip-rule="evenodd" d="M312.652 181.055C313.833 181.055 313.835 179.227 312.652 179.227C311.472 179.227 311.47 181.055 312.652 181.055Z" fill="#F2F8FD"/>
<path fill-rule="evenodd" clip-rule="evenodd" d="M297.98 198.116C299.161 198.116 299.162 196.288 297.98 196.288C296.8 196.288 296.798 198.116 297.98 198.116Z" fill="#F2F8FD"/>
<path fill-rule="evenodd" clip-rule="evenodd" d="M299.203 232.848C300.383 232.848 300.385 231.02 299.203 231.02C298.022 231.02 298.02 232.848 299.203 232.848Z" fill="#F2F8FD"/>
<path fill-rule="evenodd" clip-rule="evenodd" d="M285.753 218.224C286.934 218.224 286.935 216.396 285.753 216.396C284.573 216.396 284.571 218.224 285.753 218.224Z" fill="#F2F8FD"/>
<path fill-rule="evenodd" clip-rule="evenodd" d="M253.352 218.224C254.532 218.224 254.534 216.396 253.352 216.396C252.171 216.396 252.17 218.224 253.352 218.224Z" fill="#F2F8FD"/>
<path fill-rule="evenodd" clip-rule="evenodd" d="M280.251 131.699C281.432 131.699 281.433 129.871 280.251 129.871C279.071 129.871 279.069 131.699 280.251 131.699Z" fill="#F2F8FD"/>
<path fill-rule="evenodd" clip-rule="evenodd" d="M220.886 19.828C222.067 19.828 222.068 18 220.886 18C219.706 18 219.704 19.828 220.886 19.828Z" fill="#F2F8FD"/>
<path fill-rule="evenodd" clip-rule="evenodd" d="M120.079 39.6903C121.259 39.6903 121.261 37.8623 120.079 37.8623C118.899 37.8623 118.896 39.6903 120.079 39.6903Z" fill="#F2F8FD"/>
<path fill-rule="evenodd" clip-rule="evenodd" d="M134.14 51.8768C135.32 51.8768 135.322 50.0488 134.14 50.0488C132.96 50.0488 132.957 51.8768 134.14 51.8768Z" fill="#F2F8FD"/>
<path fill-rule="evenodd" clip-rule="evenodd" d="M153.703 31.1595C154.883 31.1595 154.885 29.3315 153.703 29.3315C152.523 29.3315 152.52 31.1595 153.703 31.1595Z" fill="#F2F8FD"/>
<path fill-rule="evenodd" clip-rule="evenodd" d="M162.873 43.651C164.053 43.651 164.055 41.823 162.873 41.823C161.693 41.823 161.691 43.651 162.873 43.651Z" fill="#F2F8FD"/>
<path fill-rule="evenodd" clip-rule="evenodd" d="M67.5031 43.9554C68.683 43.9554 68.6855 42.1274 67.5031 42.1274C66.3233 42.1274 66.3208 43.9554 67.5031 43.9554Z" fill="#F2F8FD"/>
<path fill-rule="evenodd" clip-rule="evenodd" d="M82.1754 64.6727C83.3553 64.6727 83.3577 62.8447 82.1754 62.8447C80.9955 62.8447 80.993 64.6727 82.1754 64.6727Z" fill="#F2F8FD"/>
<path fill-rule="evenodd" clip-rule="evenodd" d="M93.1797 53.7047C94.3596 53.7047 94.362 51.8767 93.1797 51.8767C91.9998 51.8767 91.9973 53.7047 93.1797 53.7047Z" fill="#F2F8FD"/>
<path fill-rule="evenodd" clip-rule="evenodd" d="M100.886 17.828C102.066 17.828 102.068 16 100.886 16C99.7059 16 99.7035 17.828 100.886 17.828Z" fill="#F2F8FD"/>
<path fill-rule="evenodd" clip-rule="evenodd" d="M112.743 61.0167C113.923 61.0167 113.925 59.1887 112.743 59.1887C111.563 59.1887 111.56 61.0167 112.743 61.0167Z" fill="#F2F8FD"/>
<path fill-rule="evenodd" clip-rule="evenodd" d="M66.2805 102.451C67.4604 102.451 67.4628 100.623 66.2805 100.623C65.1006 100.623 65.0982 102.451 66.2805 102.451Z" fill="#F2F8FD"/>
<path fill-rule="evenodd" clip-rule="evenodd" d="M91.957 132.308C93.1369 132.308 93.1393 130.48 91.957 130.48C90.7771 130.48 90.7747 132.308 91.957 132.308Z" fill="#F2F8FD"/>
<path fill-rule="evenodd" clip-rule="evenodd" d="M94.4023 95.7486C95.5822 95.7486 95.5847 93.9207 94.4023 93.9207C93.2224 93.9207 93.22 95.7486 94.4023 95.7486Z" fill="#F2F8FD"/>
<path fill-rule="evenodd" clip-rule="evenodd" d="M110.297 129.871C111.477 129.871 111.48 128.043 110.297 128.043C109.117 128.043 109.115 129.871 110.297 129.871Z" fill="#F2F8FD"/>
<path fill-rule="evenodd" clip-rule="evenodd" d="M58.9443 155.463C60.1242 155.463 60.1267 153.635 58.9443 153.635C57.7644 153.635 57.762 155.463 58.9443 155.463Z" fill="#F2F8FD"/>
<path fill-rule="evenodd" clip-rule="evenodd" d="M38.1587 195.679C39.3386 195.679 39.341 193.851 38.1587 193.851C36.9788 193.851 36.9763 195.679 38.1587 195.679Z" fill="#F2F8FD"/>
<path fill-rule="evenodd" clip-rule="evenodd" d="M61.3897 220.052C62.5696 220.052 62.5721 218.224 61.3897 218.224C60.2098 218.224 60.2074 220.052 61.3897 220.052Z" fill="#F2F8FD"/>
<path fill-rule="evenodd" clip-rule="evenodd" d="M77.2846 200.553C78.4645 200.553 78.467 198.725 77.2846 198.725C76.1047 198.725 76.1023 200.553 77.2846 200.553Z" fill="#F2F8FD"/>
<path fill-rule="evenodd" clip-rule="evenodd" d="M60.7784 192.632C61.9583 192.632 61.9608 190.804 60.7784 190.804C59.5985 190.804 59.5961 192.632 60.7784 192.632Z" fill="#F2F8FD"/>
<path fill-rule="evenodd" clip-rule="evenodd" d="M43.0494 221.88C44.2293 221.88 44.2318 220.052 43.0494 220.052C41.8695 220.052 41.8671 221.88 43.0494 221.88Z" fill="#F2F8FD"/>
<path fill-rule="evenodd" clip-rule="evenodd" d="M83.3982 231.02C84.5781 231.02 84.5805 229.192 83.3982 229.192C82.2183 229.192 82.2158 231.02 83.3982 231.02Z" fill="#F2F8FD"/>
<path fill-rule="evenodd" clip-rule="evenodd" d="M91.3456 210.912C92.5255 210.912 92.5279 209.084 91.3456 209.084C90.1657 209.084 90.1632 210.912 91.3456 210.912Z" fill="#F2F8FD"/>
<path fill-rule="evenodd" clip-rule="evenodd" d="M123.747 228.582C124.927 228.582 124.929 226.754 123.747 226.754C122.567 226.754 122.565 228.582 123.747 228.582Z" fill="#F2F8FD"/>
<path fill-rule="evenodd" clip-rule="evenodd" d="M38.1587 170.087C39.3386 170.087 39.341 168.259 38.1587 168.259C36.9788 168.259 36.9763 170.087 38.1587 170.087Z" fill="#F2F8FD"/>
<path fill-rule="evenodd" clip-rule="evenodd" d="M76.6733 146.932C77.8532 146.932 77.8557 145.104 76.6733 145.104C75.4934 145.104 75.491 146.932 76.6733 146.932Z" fill="#F2F8FD"/>
<path fill-rule="evenodd" clip-rule="evenodd" d="M68.7258 126.215C69.9057 126.215 69.9081 124.387 68.7258 124.387C67.5459 124.387 67.5435 126.215 68.7258 126.215Z" fill="#F2F8FD"/>
<path fill-rule="evenodd" clip-rule="evenodd" d="M48.5515 131.699C49.7314 131.699 49.7338 129.871 48.5515 129.871C47.3716 129.871 47.3691 131.699 48.5515 131.699Z" fill="#F2F8FD"/>
<path fill-rule="evenodd" clip-rule="evenodd" d="M45.4947 100.014C46.6746 100.014 46.6771 98.1858 45.4947 98.1858C44.3148 98.1858 44.3124 100.014 45.4947 100.014Z" fill="#F2F8FD"/>
<path fill-rule="evenodd" clip-rule="evenodd" d="M63.2237 82.9525C64.4036 82.9525 64.4061 81.1245 63.2237 81.1245C62.0438 81.1245 62.0414 82.9525 63.2237 82.9525Z" fill="#F2F8FD"/>
<path fill-rule="evenodd" clip-rule="evenodd" d="M54.0536 62.8448C55.2335 62.8448 55.2359 61.0168 54.0536 61.0168C52.8737 61.0168 52.8712 62.8448 54.0536 62.8448Z" fill="#F2F8FD"/>
<path fill-rule="evenodd" clip-rule="evenodd" d="M37.5473 78.078C38.7272 78.078 38.7297 76.25 37.5473 76.25C36.3674 76.25 36.365 78.078 37.5473 78.078Z" fill="#F2F8FD"/>
<path fill-rule="evenodd" clip-rule="evenodd" d="M36.3246 38.4715C37.5045 38.4715 37.5069 36.6436 36.3246 36.6436C35.1447 36.6436 35.1422 38.4715 36.3246 38.4715Z" fill="#F2F8FD"/>
<path fill-rule="evenodd" clip-rule="evenodd" d="M65.8858 25.828C67.0657 25.828 67.0682 24 65.8858 24C64.7059 24 64.7035 25.828 65.8858 25.828Z" fill="#F2F8FD"/>
<path fill-rule="evenodd" clip-rule="evenodd" d="M120.079 29.3317C121.259 29.3317 121.261 27.5037 120.079 27.5037C118.899 27.5037 118.896 29.3317 120.079 29.3317Z" fill="#F2F8FD"/>
<path fill-rule="evenodd" clip-rule="evenodd" d="M324.879 204.818C326.06 204.818 326.062 202.99 324.879 202.99C323.699 202.99 323.697 204.818 324.879 204.818Z" fill="#F2F8FD"/>
<path fill-rule="evenodd" clip-rule="evenodd" d="M140.864 124.996C142.044 124.996 142.047 123.168 140.864 123.168C139.685 123.168 139.682 124.996 140.864 124.996Z" fill="#F2F8FD"/>
<path fill-rule="evenodd" clip-rule="evenodd" d="M115.799 137.792C116.979 137.792 116.982 135.964 115.799 135.964C114.62 135.964 114.617 137.792 115.799 137.792Z" fill="#F2F8FD"/>
<path fill-rule="evenodd" clip-rule="evenodd" d="M230.732 100.623C231.913 100.623 231.914 98.7952 230.732 98.7952C229.552 98.7952 229.55 100.623 230.732 100.623Z" fill="#F2F8FD"/>
<path fill-rule="evenodd" clip-rule="evenodd" d="M232.566 116.466C233.747 116.466 233.749 114.638 232.566 114.638C231.386 114.638 231.384 116.466 232.566 116.466Z" fill="#F2F8FD"/>
<path fill-rule="evenodd" clip-rule="evenodd" d="M252.741 137.183C253.921 137.183 253.923 135.355 252.741 135.355C251.56 135.355 251.558 137.183 252.741 137.183Z" fill="#F2F8FD"/>
<path fill-rule="evenodd" clip-rule="evenodd" d="M107.171 88.5732L100.967 85.2682L107.416 78.9592L116.953 83.9052L107.171 88.5732Z" fill="#F52D56"/>
<path fill-rule="evenodd" clip-rule="evenodd" d="M156.46 120.715L152.072 121.018L151.604 118.375L154.7 116.342L156.46 120.715Z" fill="#054EE5"/>
<path fill-rule="evenodd" clip-rule="evenodd" d="M94.9056 158.747L90.5161 159.047L90.0485 156.407L93.1425 154.372L94.9056 158.747Z" fill="#054EE5"/>
<path fill-rule="evenodd" clip-rule="evenodd" d="M159.076 98.8598L154.686 99.1609L154.223 96.5182L157.314 94.4836L159.076 98.8598Z" fill="#054EE5"/>
<path fill-rule="evenodd" clip-rule="evenodd" d="M70.7208 97.7521L66.3295 98.0525L65.8661 95.4116L68.9589 93.3765L70.7208 97.7521Z" fill="#054EE5"/>
<path fill-rule="evenodd" clip-rule="evenodd" d="M205.949 171.646L201.559 171.947L201.095 169.306L204.188 167.27L205.949 171.646Z" fill="#054EE5"/>
<path fill-rule="evenodd" clip-rule="evenodd" d="M138.381 74.1432L133.99 74.4424L133.524 71.8027L136.621 69.7664L138.381 74.1432Z" fill="#054EE5"/>
<path fill-rule="evenodd" clip-rule="evenodd" d="M218.844 131.685L214.456 131.986L213.992 129.345L217.083 127.311L218.844 131.685Z" fill="#054EE5"/>
<path fill-rule="evenodd" clip-rule="evenodd" d="M236.958 90.7654L232.568 91.0658L232.104 88.4255L235.195 86.3904L236.958 90.7654Z" fill="#054EE5"/>
<path fill-rule="evenodd" clip-rule="evenodd" d="M196.636 188.152L192.247 188.452L191.781 185.812L194.875 183.776L196.636 188.152Z" fill="#054EE5"/>
<path fill-rule="evenodd" clip-rule="evenodd" d="M181.793 118.534L182.018 121.252L178.726 119.733L178.513 116.107L181.793 118.534Z" fill="#EB008B"/>
<path fill-rule="evenodd" clip-rule="evenodd" d="M61.4366 138.621L58.8806 139.966L58.9607 136.56L62.4062 134.834L61.4366 138.621Z" fill="#EB008B"/>
<path fill-rule="evenodd" clip-rule="evenodd" d="M183.951 214.288L181.391 215.636L181.475 212.229L184.92 210.504L183.951 214.288Z" fill="#EB008B"/>
<path fill-rule="evenodd" clip-rule="evenodd" d="M113.436 113.196L110.72 114.247L111.249 110.874L114.893 109.548L113.436 113.196Z" fill="#EB008B"/>
<path fill-rule="evenodd" clip-rule="evenodd" d="M158.138 181.324L161.079 181.288L159.232 184.236L155.316 184.205L158.138 181.324Z" fill="#EB008B"/>
<path fill-rule="evenodd" clip-rule="evenodd" d="M138.281 187.403L133.9 188.836L132.648 184.402L137.941 182.725L138.281 187.403Z" fill="#FFD200"/>
<path fill-rule="evenodd" clip-rule="evenodd" d="M110.051 131.091L110.305 135.392L105.362 135.261L105.108 130.081L110.051 131.091Z" fill="#FFD200"/>
<path fill-rule="evenodd" clip-rule="evenodd" d="M85.0217 72.3805L80.6378 73.8136L79.387 69.3783L84.6806 67.7002L85.0217 72.3805Z" fill="#FFD200"/>
<path fill-rule="evenodd" clip-rule="evenodd" d="M169.505 69.3128L165.124 70.7441L163.87 66.3094L169.165 64.6338L169.505 69.3128Z" fill="#FFD200"/>
<path fill-rule="evenodd" clip-rule="evenodd" d="M139.059 99.2695L134.678 100.703L133.427 96.2686L138.718 94.5923L139.059 99.2695Z" fill="#FFD200"/>
<path fill-rule="evenodd" clip-rule="evenodd" d="M228.838 159.624L224.458 161.057L223.207 156.624L228.498 154.943L228.838 159.624Z" fill="#FFD200"/>
<path fill-rule="evenodd" clip-rule="evenodd" d="M121.979 163.876L118.661 160.884L124.299 158.055L129.42 162.574L121.979 163.876Z" fill="#1B75BB"/>
<path fill-rule="evenodd" clip-rule="evenodd" d="M86.8256 125.526L83.5042 122.151L89.1652 119.271L94.2962 124.371L86.8256 125.526Z" fill="#F52D56"/>
<path fill-rule="evenodd" clip-rule="evenodd" d="M63.3962 173.18L63.9153 169.608L68.6599 171.325L67.9312 176.784L63.3962 173.18Z" fill="#F52D56"/>
<path fill-rule="evenodd" clip-rule="evenodd" d="M217.414 69.8642L220.338 67.4927L222.695 71.6794L218.27 75.3457L217.414 69.8642Z" fill="#F52D56"/>
<path fill-rule="evenodd" clip-rule="evenodd" d="M246.302 69.8642L249.224 67.4927L251.582 71.6794L247.158 75.3457L246.302 69.8642Z" fill="#1B75BB"/>
<path fill-rule="evenodd" clip-rule="evenodd" d="M159.965 164.944L154.484 167.241L154.651 160.38L161.911 157.327L159.965 164.944Z" fill="#EB008B"/>
<path fill-rule="evenodd" clip-rule="evenodd" d="M267.01 121.931L261.529 124.228L261.697 117.367L268.955 114.315L267.01 121.931Z" fill="#F52D56"/>
<path fill-rule="evenodd" clip-rule="evenodd" d="M235.663 111.644L235.454 116.734L229.469 113.814L229.733 107.062L235.663 111.644Z" fill="#F52D56"/>
<path fill-rule="evenodd" clip-rule="evenodd" d="M115.333 183.231L106.515 186.113L103.996 177.188L114.648 173.812L115.333 183.231Z" fill="#FFD200"/>
<path fill-rule="evenodd" clip-rule="evenodd" d="M323.612 183.631L318.315 183.993L317.752 180.806L321.487 178.348L323.612 183.631Z" fill="#054EE5"/>
<path fill-rule="evenodd" clip-rule="evenodd" d="M275.837 194.529L270.542 194.893L273.714 189.25L275.837 194.529Z" fill="#054EE5"/>
<path fill-rule="evenodd" clip-rule="evenodd" d="M269.966 169.205L264.667 169.568L264.107 166.379L267.838 163.922L269.966 169.205Z" fill="#054EE5"/>
<path fill-rule="evenodd" clip-rule="evenodd" d="M244.985 139.372L239.686 139.732L239.124 136.546L242.86 134.089L244.985 139.372Z" fill="#054EE5"/>
<path fill-rule="evenodd" clip-rule="evenodd" d="M152.677 101.609L147.38 101.972L146.819 98.7851L150.553 96.3289L152.677 101.609Z" fill="#054EE5"/>
<path fill-rule="evenodd" clip-rule="evenodd" d="M174.541 52.2186L169.242 52.5811L168.681 49.3943L172.413 46.9375L174.541 52.2186Z" fill="#054EE5"/>
<path fill-rule="evenodd" clip-rule="evenodd" d="M291.302 177.082L291.573 180.363L287.6 178.53L287.342 174.153L291.302 177.082Z" fill="#F52D56"/>
<path fill-rule="evenodd" clip-rule="evenodd" d="M290.242 160.617L287.154 162.243L287.253 158.131L291.414 156.048L290.242 160.617Z" fill="#F52D56"/>
<path fill-rule="evenodd" clip-rule="evenodd" d="M186.696 68.2636L183.607 69.8893L183.707 65.7769L187.867 63.6948L186.696 68.2636Z" fill="#F52D56"/>
<path fill-rule="evenodd" clip-rule="evenodd" d="M282.553 133.541L277.266 135.269L275.752 129.917L282.143 127.894L282.553 133.541Z" fill="#FFD200"/>
<path fill-rule="evenodd" clip-rule="evenodd" d="M254.981 190.794L249.692 192.524L248.183 187.171L254.569 185.148L254.981 190.794Z" fill="#FFD200"/>
<path fill-rule="evenodd" clip-rule="evenodd" d="M185.818 26.9909L189.346 24.1289L192.191 29.1815L186.851 33.607L185.818 26.9909Z" fill="#F52D56"/>
<path fill-rule="evenodd" clip-rule="evenodd" d="M256.792 208.495L246.13 209.223L244.999 202.811L252.51 197.868L256.792 208.495Z" fill="#007AFF"/>
<path fill-rule="evenodd" clip-rule="evenodd" d="M307.957 140.899L307.706 147.042L300.481 143.518L300.799 135.368L307.957 140.899Z" fill="#F52D56"/>
<path fill-rule="evenodd" clip-rule="evenodd" d="M138.381 203.876L133.99 204.174L133.524 201.534L136.621 199.498L138.381 203.876Z" fill="#054EE5"/>
<path fill-rule="evenodd" clip-rule="evenodd" d="M113.349 210.205L108.959 210.503L108.493 207.864L111.588 205.827L113.349 210.205Z" fill="#054EE5"/>
<path fill-rule="evenodd" clip-rule="evenodd" d="M85.0217 202.113L80.6378 203.546L79.387 199.111L84.6806 197.432L85.0217 202.113Z" fill="#FFD200"/>
<path fill-rule="evenodd" clip-rule="evenodd" d="M169.505 199.045L165.124 200.477L163.87 196.042L169.165 194.366L169.505 199.045Z" fill="#FFD200"/>
<path fill-rule="evenodd" clip-rule="evenodd" d="M129.636 181.547C129.636 181.547 130.484 182.477 129.583 184.77C128.675 187.076 124.57 200.499 128.496 202.333C128.496 202.333 124.48 204.15 120.972 199.711C117.365 195.142 122.268 182.129 126.188 179.587L129.636 181.547Z" fill="#4252FF"/>
<path fill-rule="evenodd" clip-rule="evenodd" d="M109.103 172.322C108.077 174.776 103.459 189.139 108.018 191.291C108.018 191.291 103.39 193.092 99.2808 188.128C95.0442 183.011 99.0393 172.177 103.16 165.987L109.103 172.322Z" fill="#4252FF"/>
<path fill-rule="evenodd" clip-rule="evenodd" d="M129.636 181.547L122.823 177.441C122.823 177.441 111.087 195.391 100.917 189.715C100.917 189.715 111.726 198.459 120.493 190.817C128.813 183.56 129.636 181.547 129.636 181.547Z" fill="#A1A9FF"/>
<path fill-rule="evenodd" clip-rule="evenodd" d="M119.791 197.252C119.791 197.252 121.786 203.008 131.197 200.223C141.569 197.287 146.489 211.427 146.489 211.427L141.995 218.757C141.995 218.757 142.764 204.444 133.726 204.511C124.005 204.58 122.088 203.398 119.791 197.252Z" fill="#A1A9FF"/>
<path fill-rule="evenodd" clip-rule="evenodd" d="M225.013 172.187C225.013 172.187 224.421 173.074 225.471 174.882C226.526 176.699 231.688 187.429 228.632 189.466C228.632 189.466 232.232 190.478 234.602 186.311C237.04 182.022 231.264 171.737 227.653 170.105L225.013 172.187Z" fill="#FFCC00"/>
<path fill-rule="evenodd" clip-rule="evenodd" d="M241.043 161.839C242.218 163.767 247.93 175.219 244.384 177.603C244.384 177.603 248.494 178.524 251.303 173.84C254.198 169.011 249.461 160.437 245.214 155.772L241.043 161.839Z" fill="#FFCC00"/>
<path fill-rule="evenodd" clip-rule="evenodd" d="M225.013 172.187L230.198 167.877C230.198 167.877 242.336 181.431 250.134 175.379C250.134 175.379 242.193 184.084 233.864 178.793C225.96 173.769 225.013 172.187 225.013 172.187Z" fill="#E89A24"/>
<path fill-rule="evenodd" clip-rule="evenodd" d="M235.278 184.099C235.278 184.099 234.343 189.178 226.097 188.041C217.026 186.9 214.711 199.378 214.711 199.378L219.419 204.953C219.419 204.953 216.941 193.051 224.525 191.957C232.685 190.778 234.14 189.543 235.278 184.099Z" fill="#E89A24"/>
<path fill-rule="evenodd" clip-rule="evenodd" d="M259.926 98.2514L255.302 97.288L257.347 101.533L255 105.618L259.682 104.99L263.342 95L259.926 98.2514Z" fill="#FF9500"/>
<path fill-rule="evenodd" clip-rule="evenodd" d="M99.9256 18.1918L95.302 17.2285L97.347 21.4731L95 25.5586L99.6823 24.9304L103.342 14.9404L99.9256 18.1918Z" fill="#FF9500"/>
<path fill-rule="evenodd" clip-rule="evenodd" d="M264.021 103.846L268.33 101.915L264.171 99.6809L263.66 95L260 104.99L263.173 108.477L264.021 103.846Z" fill="#FFCC00"/>
<path fill-rule="evenodd" clip-rule="evenodd" d="M104.021 23.7861L108.33 21.8557L104.171 19.6213L103.66 14.9404L100 24.9304L103.173 28.4176L104.021 23.7861Z" fill="#FFCC00"/>
<path fill-rule="evenodd" clip-rule="evenodd" d="M248.563 42.1231L245.218 41.4359L246.698 44.4638L245 47.3782L248.387 46.9301L251.035 39.8037L248.563 42.1231Z" fill="#FF9500"/>
<path fill-rule="evenodd" clip-rule="evenodd" d="M251.526 46.1138L254.643 44.7368L251.634 43.1428L251.265 39.8037L248.617 46.9301L250.913 49.4177L251.526 46.1138Z" fill="#FFCC00"/>
<path fill-rule="evenodd" clip-rule="evenodd" d="M75.5634 143.123L72.2185 142.436L73.6979 145.464L72 148.378L75.3874 147.93L78.0348 140.804L75.5634 143.123Z" fill="#FF9500"/>
<path fill-rule="evenodd" clip-rule="evenodd" d="M78.526 147.114L81.6432 145.737L78.6344 144.143L78.2646 140.804L75.6172 147.93L77.913 150.418L78.526 147.114Z" fill="#FFCC00"/>
<path fill-rule="evenodd" clip-rule="evenodd" d="M196.907 298L113 278.107L174.45 258L259 273.903L196.907 298Z" fill="#40BE94"/>
<path fill-rule="evenodd" clip-rule="evenodd" d="M131 209L184 198.5L238 207.638L194 218.5L131 209Z" fill="#86172E"/>
<path fill-rule="evenodd" clip-rule="evenodd" d="M184 198.5L184.433 264.659L233.14 273L239 207L184 198.5Z" fill="#B6203F"/>
<path fill-rule="evenodd" clip-rule="evenodd" d="M194 287L138.387 274.189L131 209L194 218.149V287Z" fill="#F52D56"/>
<path fill-rule="evenodd" clip-rule="evenodd" d="M194 218.145L239 207L233.5 273L194 287V218.145Z" fill="#FF7491"/>
<path fill-rule="evenodd" clip-rule="evenodd" d="M208.5 282L218.48 278.416L226 210L216.227 212.502L208.5 282Z" fill="#EBB02A"/>
<path fill-rule="evenodd" clip-rule="evenodd" d="M156.128 278.715L149 212L161.042 213.768L166 281L156.128 278.715Z" fill="#EBB02A"/>
<path fill-rule="evenodd" clip-rule="evenodd" d="M238 127L196 143L197 157L238 142V127Z" fill="#FF7491"/>
<path fill-rule="evenodd" clip-rule="evenodd" d="M238 127L194.523 123.98L179.977 123L125 140L196 143L238 127Z" fill="#FF8DA5"/>
<path fill-rule="evenodd" clip-rule="evenodd" d="M128 153L197 157L196 143L125 140L128 153Z" fill="#F52D56"/>
<path fill-rule="evenodd" clip-rule="evenodd" d="M143.5 141L158 141.5L160.5 155L146.5 154L143.5 141Z" fill="#EBB02A"/>
<path fill-rule="evenodd" clip-rule="evenodd" d="M143.5 141L193.965 124L206 124.826L158 141.5L143.5 141Z" fill="#F2BB4E"/>
<path fill-rule="evenodd" clip-rule="evenodd" d="M216 135.5V150L226 146.5V131.5L216 135.5Z" fill="#EBB02A"/>
<path fill-rule="evenodd" clip-rule="evenodd" d="M226 131.5L162 128.5L151 132L216 135.5L226 131.5Z" fill="#F2BB4E"/>
<path fill-rule="evenodd" clip-rule="evenodd" d="M141.009 111.456C141.009 111.456 157.307 130.1 176.998 130.762C181.568 130.284 183.643 128.957 183.643 128.957L155.231 110.778C156.622 104.746 159.722 99.2277 164.17 94.8668C166.029 93.0431 164.019 90.015 161.581 90.967L153.441 94.1471L145.089 102.178L141.009 111.456Z" fill="#E89A24"/>
<path fill-rule="evenodd" clip-rule="evenodd" d="M181.568 130.284L165.571 101.925C165.241 101.339 164.655 100.943 163.983 100.846C161.956 100.554 157.312 100.27 151.753 102.447C144.26 105.382 141.009 111.456 141.009 111.456L145.089 102.178C146.248 99.5418 147.936 97.1649 150.052 95.1899C153.978 91.5251 158.908 89.0762 164.232 88.1465L169.022 87.31C171.012 86.9626 172.957 88.1174 173.578 90.0149L185.854 127.542L181.568 130.284Z" fill="#F2BB4E"/>
<path fill-rule="evenodd" clip-rule="evenodd" d="M221.55 103.017C221.55 103.017 209.587 124.623 190.476 129.35C185.906 129.829 183.594 128.961 183.594 128.961L207.501 105.301C204.856 99.6922 200.65 94.939 195.373 91.5974C193.166 90.1998 194.487 86.8225 197.073 87.2486L205.71 88.6703L215.585 94.7913L221.55 103.017Z" fill="#E89A24"/>
<path fill-rule="evenodd" clip-rule="evenodd" d="M185.906 129.829L195.507 98.7874C195.704 98.1477 196.193 97.6386 196.829 97.405C198.749 96.6993 203.229 95.4585 209.127 96.4354C217.079 97.7524 221.55 103.018 221.55 103.018L215.585 94.7909C213.89 92.454 211.734 90.4802 209.244 88.9876C204.625 86.2179 199.283 84.8458 193.881 85.0395L189.02 85.215C187 85.2877 185.344 86.819 185.142 88.803L181.131 128.037L185.906 129.829Z" fill="#F2BB4E"/>
</svg>
