<svg width="48" height="48" viewBox="0 0 48 48" fill="none" xmlns="http://www.w3.org/2000/svg">
<path d="M43 24C43 25.0609 43.4214 26.0783 44.1716 26.8284C44.9217 27.5786 45.9391 28 47 28V36C47 36.5304 46.7893 37.0391 46.4142 37.4142C46.0391 37.7893 45.5304 38 45 38H18C18 37.2044 17.6839 36.4413 17.1213 35.8787C16.5587 35.3161 15.7956 35 15 35C14.2044 35 13.4413 35.3161 12.8787 35.8787C12.3161 36.4413 12 37.2044 12 38H3C2.46957 38 1.96086 37.7893 1.58579 37.4142C1.21071 37.0391 1 36.5304 1 36V28C2.06087 28 3.07828 27.5786 3.82843 26.8284C4.57857 26.0783 5 25.0609 5 24C5 22.9391 4.57857 21.9217 3.82843 21.1716C3.07828 20.4214 2.06087 20 1 20V12C1 11.4696 1.21071 10.9609 1.58579 10.5858C1.96086 10.2107 2.46957 10 3 10H12C12 10.7956 12.3161 11.5587 12.8787 12.1213C13.4413 12.6839 14.2044 13 15 13C15.7956 13 16.5587 12.6839 17.1213 12.1213C17.6839 11.5587 18 10.7956 18 10H45C45.5304 10 46.0391 10.2107 46.4142 10.5858C46.7893 10.9609 47 11.4696 47 12V20C45.9391 20 44.9217 20.4214 44.1716 21.1716C43.4214 21.9217 43 22.9391 43 24Z" fill="#054EE5"/>
<path d="M43 24C43 25.0609 43.4214 26.0783 44.1716 26.8284C44.9217 27.5786 45.9391 28 47 28V36H17.23C16.9487 35.6874 16.6048 35.4374 16.2206 35.2663C15.8364 35.0952 15.4206 35.0068 15 35.0068C14.5794 35.0068 14.1636 35.0952 13.7794 35.2663C13.3952 35.4374 13.0513 35.6874 12.77 36H10C4.52 36 2.23 29.07 5.53 27.7C6.27919 27.3926 6.91743 26.865 7.36032 26.187C7.80321 25.5091 8.02989 24.7126 8.01038 23.9031C7.99087 23.0935 7.7261 22.3089 7.25107 21.653C6.77604 20.9972 6.11313 20.501 5.35 20.23C4.96502 20.1088 4.62773 19.87 4.38557 19.5471C4.1434 19.2242 4.00856 18.8335 4 18.43V12C4 11.4696 4.21071 10.9609 4.58579 10.5858C4.96086 10.2107 5.46957 10 6 10H12C12 10.7956 12.3161 11.5587 12.8787 12.1213C13.4413 12.6839 14.2044 13 15 13C15.7956 13 16.5587 12.6839 17.1213 12.1213C17.6839 11.5587 18 10.7956 18 10H45C45.5304 10 46.0391 10.2107 46.4142 10.5858C46.7893 10.9609 47 11.4696 47 12V20C45.9391 20 44.9217 20.4214 44.1716 21.1716C43.4214 21.9217 43 22.9391 43 24Z" fill="#054EE5"/>
<path d="M14 17V19C14 19.2652 14.1054 19.5196 14.2929 19.7071C14.4804 19.8946 14.7348 20 15 20C15.2652 20 15.5196 19.8946 15.7071 19.7071C15.8946 19.5196 16 19.2652 16 19V17C16 16.7348 15.8946 16.4804 15.7071 16.2929C15.5196 16.1054 15.2652 16 15 16C14.7348 16 14.4804 16.1054 14.2929 16.2929C14.1054 16.4804 14 16.7348 14 17Z" fill="#D8D8D8"/>
<path d="M14 23V25C14 25.2652 14.1054 25.5196 14.2929 25.7071C14.4804 25.8946 14.7348 26 15 26C15.2652 26 15.5196 25.8946 15.7071 25.7071C15.8946 25.5196 16 25.2652 16 25V23C16 22.7348 15.8946 22.4804 15.7071 22.2929C15.5196 22.1054 15.2652 22 15 22C14.7348 22 14.4804 22.1054 14.2929 22.2929C14.1054 22.4804 14 22.7348 14 23Z" fill="#D8D8D8"/>
<path d="M14 29V31C14 31.2652 14.1054 31.5196 14.2929 31.7071C14.4804 31.8946 14.7348 32 15 32C15.2652 32 15.5196 31.8946 15.7071 31.7071C15.8946 31.5196 16 31.2652 16 31V29C16 28.7348 15.8946 28.4804 15.7071 28.2929C15.5196 28.1054 15.2652 28 15 28C14.7348 28 14.4804 28.1054 14.2929 28.2929C14.1054 28.4804 14 28.7348 14 29Z" fill="#D8D8D8"/>
<path d="M37.71 17.7099C22.44 32.9999 23.6 31.9999 23 31.9999C22.8013 32.0011 22.6069 31.9431 22.4413 31.8333C22.2758 31.7235 22.1468 31.5669 22.0706 31.3834C21.9944 31.2 21.9746 30.998 22.0137 30.8033C22.0527 30.6085 22.1489 30.4298 22.29 30.2899L36.29 16.2899C36.4783 16.1016 36.7337 15.9958 37 15.9958C37.2663 15.9958 37.5217 16.1016 37.71 16.2899C37.8983 16.4782 38.0041 16.7336 38.0041 16.9999C38.0041 17.2662 37.8983 17.5216 37.71 17.7099Z" fill="#DAD7E5"/>
<path d="M37.71 17.7099C24.66 30.7599 25.6 29.9999 25 29.9999C24.8013 30.0011 24.6069 29.9431 24.4413 29.8333C24.2758 29.7235 24.1468 29.5669 24.0706 29.3834C23.9944 29.2 23.9746 28.998 24.0137 28.8033C24.0527 28.6085 24.1489 28.4298 24.29 28.2899L36.29 16.2899C36.4783 16.1016 36.7337 15.9958 37 15.9958C37.2663 15.9958 37.5217 16.1016 37.71 16.2899C37.8983 16.4782 38.0041 16.7336 38.0041 16.9999C38.0041 17.2662 37.8983 17.5216 37.71 17.7099Z" fill="#EDEBF2"/>
<path d="M38 28.9999C38.0004 29.5237 37.8637 30.0384 37.6035 30.493C37.3433 30.9475 36.9686 31.326 36.5167 31.5908C36.0648 31.8556 35.5515 31.9975 35.0277 32.0023C34.504 32.0072 33.9881 31.8748 33.5314 31.6184C33.0747 31.362 32.6931 30.9905 32.4245 30.5408C32.1559 30.0912 32.0097 29.5791 32.0005 29.0554C31.9912 28.5317 32.1192 28.0147 32.3718 27.5559C32.6243 27.097 32.9926 26.7123 33.44 26.4399C33.8947 26.1631 34.4148 26.0123 34.9471 26.0029C35.4793 25.9935 36.0044 26.1259 36.4686 26.3865C36.9328 26.6471 37.3192 27.0265 37.5884 27.4857C37.8575 27.945 37.9996 28.4676 38 28.9999Z" fill="#DAD7E5"/>
<path d="M37.56 30.56C36.9859 30.9075 36.3119 31.0526 35.6457 30.9719C34.9795 30.8912 34.3596 30.5895 33.885 30.115C33.4105 29.6404 33.1088 29.0205 33.0281 28.3543C32.9474 27.6881 33.0925 27.0141 33.44 26.44C34.0141 26.0925 34.6881 25.9474 35.3543 26.0281C36.0205 26.1088 36.6404 26.4105 37.115 26.885C37.5895 27.3596 37.8912 27.9795 37.9719 28.6457C38.0526 29.3119 37.9075 29.9859 37.56 30.56Z" fill="#EDEBF2"/>
<path d="M28 18.9999C28.0004 19.5237 27.8637 20.0384 27.6035 20.493C27.3433 20.9475 26.9686 21.326 26.5167 21.5908C26.0648 21.8556 25.5515 21.9975 25.0277 22.0023C24.504 22.0072 23.9881 21.8748 23.5314 21.6184C23.0747 21.362 22.6931 20.9905 22.4245 20.5408C22.1559 20.0912 22.0097 19.5791 22.0005 19.0554C21.9912 18.5317 22.1192 18.0147 22.3718 17.5559C22.6243 17.097 22.9926 16.7123 23.44 16.4399C23.8947 16.1631 24.4148 16.0123 24.9471 16.0029C25.4793 15.9935 26.0044 16.1259 26.4686 16.3865C26.9328 16.6471 27.3192 17.0265 27.5884 17.4857C27.8575 17.945 27.9996 18.4676 28 18.9999Z" fill="#DAD7E5"/>
<path d="M27.56 20.56C26.9859 20.9075 26.3119 21.0526 25.6457 20.9719C24.9795 20.8912 24.3596 20.5895 23.885 20.115C23.4105 19.6404 23.1088 19.0205 23.0281 18.3543C22.9474 17.6881 23.0925 17.0141 23.44 16.44C24.0141 16.0925 24.6881 15.9474 25.3543 16.0281C26.0205 16.1088 26.6404 16.4105 27.115 16.885C27.5895 17.3596 27.8912 17.9795 27.9719 18.6457C28.0526 19.3119 27.9075 19.9859 27.56 20.56Z" fill="#EDEBF2"/>
</svg>
