<svg width="24" height="24" viewBox="0 0 24 24" fill="none" xmlns="http://www.w3.org/2000/svg">
<path d="M12 0C18.6274 0 24 5.37256 24 12C24 18.6274 18.6274 24 12 24C5.37256 24 0 18.6274 0 12C0 5.37256 5.37256 0 12 0ZM17.7197 7.21582C17.4269 6.92792 16.9521 6.92799 16.6592 7.21582L9.625 14.1328L6.34082 10.9033C6.04799 10.6157 5.57311 10.6156 5.28027 10.9033L4.21973 11.9473C3.92704 12.2353 3.92692 12.7023 4.21973 12.9902L9.09473 17.7842C9.38762 18.0721 9.86239 18.072 10.1553 17.7842L18.7803 9.30176C19.073 9.01373 19.0731 8.54676 18.7803 8.25879L17.7197 7.21582Z" fill="#4252FF"/>
</svg>
